<?xml version="1.0" encoding="UTF-8" standalone="no"?>
<!-- Created with Inkscape (http://www.inkscape.org/) -->

<svg
   xmlns:dc="http://purl.org/dc/elements/1.1/"
   xmlns:cc="http://creativecommons.org/ns#"
   xmlns:rdf="http://www.w3.org/1999/02/22-rdf-syntax-ns#"
   xmlns:svg="http://www.w3.org/2000/svg"
   xmlns="http://www.w3.org/2000/svg"
   xmlns:sodipodi="http://sodipodi.sourceforge.net/DTD/sodipodi-0.dtd"
   xmlns:inkscape="http://www.inkscape.org/namespaces/inkscape"
   width="744.09448819"
   height="1052.3622047"
   id="svg3419"
   version="1.1"
   inkscape:version="0.48.4 r9939"
   sodipodi:docname="ELSI-logo.svg">
  <title
     id="title3479">ELSI LOGO</title>
  <defs
     id="defs3421" />
  <sodipodi:namedview
     id="base"
     pagecolor="#ffffff"
     bordercolor="#666666"
     borderopacity="1.0"
     inkscape:pageopacity="0.0"
     inkscape:pageshadow="2"
     inkscape:zoom="1.979899"
     inkscape:cx="-108.19861"
     inkscape:cy="848.32097"
     inkscape:document-units="px"
     inkscape:current-layer="layer1"
     showgrid="false"
     inkscape:window-width="1920"
     inkscape:window-height="1176"
     inkscape:window-x="0"
     inkscape:window-y="24"
     inkscape:window-maximized="1" />
  <metadata
     id="metadata3424">
    <rdf:RDF>
      <cc:Work
         rdf:about="">
        <dc:format>image/svg+xml</dc:format>
        <dc:type
           rdf:resource="http://purl.org/dc/dcmitype/StillImage" />
        <dc:title>ELSI LOGO</dc:title>
        <dc:creator>
          <cc:Agent>
            <dc:title>Alvaro Vazquez-Mayagoitia</dc:title>
          </cc:Agent>
        </dc:creator>
        <dc:rights>
          <cc:Agent>
            <dc:title>!Copyright (c) 2016, ELSI consortium</dc:title>
          </cc:Agent>
        </dc:rights>
      </cc:Work>
    </rdf:RDF>
  </metadata>
  <g
     inkscape:label="Layer 1"
     inkscape:groupmode="layer"
     id="layer1">
    <text
       xml:space="preserve"
       style="font-size:86.49810791px;font-style:normal;font-weight:normal;line-height:125%;letter-spacing:0px;word-spacing:0px;fill:#ee7e00;fill-opacity:1;stroke:none;font-family:Sans"
       x="171.54675"
       y="138.48372"
       id="text4103-7-7-1"
       sodipodi:linespacing="125%"
       transform="scale(0.9250414,1.0810327)"
       inkscape:export-filename="/home/vama/elsi-logo1.png"
       inkscape:export-xdpi="90"
       inkscape:export-ydpi="90"><tspan
         sodipodi:role="line"
         id="tspan4105-60-4-2"
         x="171.54675"
         y="138.48372"
         style="font-size:115.37067413px;font-style:normal;font-variant:normal;font-weight:normal;font-stretch:normal;letter-spacing:-0.07022562px;font-family:UnDinaru;-inkscape-font-specification:UnDinaru">ELSI</tspan><tspan
         sodipodi:role="line"
         x="171.54675"
         y="282.69702"
         id="tspan4107-9-9-3"
         style="font-size:130.41902161px;font-style:normal;font-variant:normal;font-weight:normal;font-stretch:normal;letter-spacing:-0.07022562px;font-family:UnDinaru;-inkscape-font-specification:UnDinaru" /></text>
    <path
       style="fill:#ffffff;stroke:#ee7e00;stroke-width:7.6960001;stroke-linecap:butt;stroke-linejoin:round;stroke-miterlimit:4;stroke-opacity:1;stroke-dasharray:none"
       d="m 130.36625,64.105227 -59.562487,0.68268 0.64432,37.999133 c 0,0 -2.62324,20.52412 6.54836,30.33332 11.22383,12.0041 30.875027,12.131 30.875027,12.131 l 45.94663,-0.704 -0.59255,-80.123943 -27.78751,-0.3273"
       id="path3119-81-7-3-4"
       inkscape:connector-curvature="0"
       sodipodi:nodetypes="cccscccc"
       inkscape:export-filename="/home/vama/elsi-logo1.png"
       inkscape:export-xdpi="90"
       inkscape:export-ydpi="90" />
    <path
       style="fill:none;stroke:#ee7e00;stroke-width:0.90968847px;stroke-linecap:butt;stroke-linejoin:miter;stroke-opacity:1"
       d="m 129.10579,144.80236 0,-26.726 -21.99643,0.3089 0,-21.089283 -24.102467,0.0365 0.25416,-21.53842 -11.93414,0.27052 -0.0551,-11.72773 83.660737,78.911013 -0.32022,-25.1715 -25.50651,0 0,-21.635723 -21.99643,0.21929 -0.4481,-20.74955 c -8.540547,0.15009 -15.444137,-0.37644 -23.400197,-0.34167 l -0.0551,-11.3953"
       id="path3131-17-0-8-8"
       inkscape:connector-curvature="0"
       sodipodi:nodetypes="cccccccccccccccc"
       inkscape:export-filename="/home/vama/elsi-logo1.png"
       inkscape:export-xdpi="90"
       inkscape:export-ydpi="90" />
    <path
       style="fill:#ee7e00;fill-opacity:1;stroke:#ee7e00;stroke-width:1.43834603;stroke-linecap:round;stroke-linejoin:round;stroke-miterlimit:4;stroke-opacity:1;stroke-dasharray:none;stroke-dashoffset:0"
       d="m 139.93273,128.50486 -10.85583,-10.2396 10.83396,-0.059 c 5.95868,-0.032 10.87121,-0.023 10.91674,0.021 0.0455,0.044 0.0554,4.6781 0.0219,10.2983 l -0.0609,10.2185 -10.85582,-10.2396 z"
       id="path4467-9-7-2-3"
       inkscape:connector-curvature="0"
       inkscape:export-filename="/home/vama/elsi-logo1.png"
       inkscape:export-xdpi="90"
       inkscape:export-ydpi="90" />
    <path
       style="fill:#ee7e00;fill-opacity:1;stroke:#ee7e00;stroke-width:1.43834603;stroke-linecap:round;stroke-linejoin:round;stroke-miterlimit:4;stroke-opacity:1;stroke-dasharray:none;stroke-dashoffset:0"
       d="m 117.96537,107.5772 c -5.66229,-5.34995 -10.29506,-9.849963 -10.29506,-10.000023 0,-0.27962 8.73651,-0.571 17.1204,-0.571 l 3.706,0 0,10.149103 c 0,5.58198 -0.0532,10.14908 -0.11814,10.14908 -0.065,0 -4.75092,-4.3772 -10.4132,-9.72716 z"
       id="path4469-3-0-1-1"
       inkscape:connector-curvature="0"
       inkscape:export-filename="/home/vama/elsi-logo1.png"
       inkscape:export-xdpi="90"
       inkscape:export-ydpi="90" />
    <path
       style="fill:#ee7e00;fill-opacity:1;stroke:#ee7e00;stroke-width:1.43834603;stroke-linecap:round;stroke-linejoin:round;stroke-miterlimit:4;stroke-opacity:1;stroke-dasharray:none;stroke-dashoffset:0"
       d="m 95.554283,86.430857 c -5.95595,-5.63035 -10.79985,-10.25043 -10.76421,-10.26683 0.14063,-0.0648 21.130597,0.37521 21.209567,0.44456 0.11463,0.10065 0.54224,18.23618 0.45392,19.25137 l -0.0703,0.80792 -10.829007,-10.23702 z"
       id="path4471-7-5-7-3"
       inkscape:connector-curvature="0"
       inkscape:export-filename="/home/vama/elsi-logo1.png"
       inkscape:export-xdpi="90"
       inkscape:export-ydpi="90" />
    <path
       style="fill:#ee7e00;fill-opacity:1;stroke:#ee7e00;stroke-width:1.43834603;stroke-linecap:round;stroke-linejoin:round;stroke-miterlimit:4;stroke-opacity:1;stroke-dasharray:none;stroke-dashoffset:0"
       d="m 79.158233,70.992557 -3.35658,-3.24138 3.35658,-0.11966 c 1.84612,-0.0658 3.38581,-0.0945 3.42152,-0.0637 0.0357,0.0308 0.0357,1.54325 0,3.36103 l -0.065,3.30507 -3.35658,-3.24138 z"
       id="path4473-3-5-6-8"
       inkscape:connector-curvature="0"
       inkscape:export-filename="/home/vama/elsi-logo1.png"
       inkscape:export-xdpi="90"
       inkscape:export-ydpi="90" />
    <path
       style="fill:#ee7e00;fill-opacity:1;stroke:#ee7e00;stroke-width:1.43834603;stroke-linecap:round;stroke-linejoin:round;stroke-miterlimit:4;stroke-opacity:1;stroke-dasharray:none;stroke-dashoffset:0"
       d="m 104.74525,142.01366 c -10.086937,-1.3359 -18.183797,-4.7881 -23.517457,-10.027 -3.53969,-3.4768 -5.24247,-7.1123 -6.45429,-13.7801 -0.33346,-1.8349 -0.39793,-4.3776 -0.44885,-17.70458 -0.0327,-8.559073 -0.13788,-17.464903 -0.23372,-19.790743 l -0.17427,-4.22879 4.39552,0 4.39551,0 -0.15984,10.71294 -0.15985,10.71293 11.77534,0 c 8.846587,0 11.845167,0.0673 12.056137,0.27064 0.21016,0.20257 0.2808,2.849623 0.2808,10.522783 l 0,10.25212 10.6664,-0.1604 c 8.04589,-0.121 10.74792,-0.095 10.99821,0.105 0.27847,0.2228 0.33182,2.1104 0.33182,11.7401 l 0,11.4747 -3.21756,5e-4 c -1.76966,2e-4 -6.58723,0.048 -10.70571,0.1051 -5.57825,0.078 -8.08499,0.026 -9.82819,-0.2051 l 0,-1e-4 z"
       id="path4477-4-8-1-3"
       inkscape:connector-curvature="0"
       inkscape:export-filename="/home/vama/elsi-logo1.png"
       inkscape:export-xdpi="90"
       inkscape:export-ydpi="90" />
    <path
       style="fill:none;stroke:#ee7e00;stroke-width:3.38400006;stroke-linecap:round;stroke-linejoin:round;stroke-miterlimit:4;stroke-opacity:1;stroke-dasharray:none"
       d="m 105.97707,83.928577 14.16249,0 0.24846,14.15841 0,0"
       id="path4413-6"
       inkscape:connector-curvature="0" />
    <path
       style="fill:none;stroke:#ee7e00;stroke-width:3.38400006;stroke-linecap:round;stroke-linejoin:round;stroke-miterlimit:4;stroke-opacity:1;stroke-dasharray:none"
       d="m 128.09446,104.38417 14.16249,0 0.24846,14.15839 0,0"
       id="path4413-5-9"
       inkscape:connector-curvature="0" />
    <path
       style="fill:none;stroke:#ffffff;stroke-width:3.38400006;stroke-linecap:round;stroke-linejoin:round;stroke-miterlimit:4;stroke-opacity:1;stroke-dasharray:none"
       d="m 130.84536,129.95046 -14.16241,-0.046 -0.20256,-14.1592 0,0"
       id="path4413-5-2-1"
       inkscape:connector-curvature="0" />
    <path
       style="fill:none;stroke:#ffffff;stroke-width:3.38400006;stroke-linecap:round;stroke-linejoin:round;stroke-miterlimit:4;stroke-opacity:1;stroke-dasharray:none"
       d="m 108.62201,109.97956 -14.162407,-0.046 -0.20256,-14.159103 0,0"
       id="path4413-5-2-0-3"
       inkscape:connector-curvature="0" />
  </g>
</svg>
